<?xml version="1.0"?>
<svg xmlns:rdf="http://www.w3.org/1999/02/22-rdf-syntax-ns#" xmlns="http://www.w3.org/2000/svg" xmlns:cc="http://creativecommons.org/ns#" xmlns:dc="http://purl.org/dc/elements/1.1/" xmlns:svg="http://www.w3.org/2000/svg" id="svg2" viewBox="0 0 862.04 839.84" version="1.1">
  <text id="text3048" style="word-spacing:0px;letter-spacing:0px" xml:space="preserve" font-size="48px" line-height="125%" y="55.891228" x="-103.74164" font-family="Swis721 Lt BT" fill="#000000">
    <tspan id="tspan3050" y="55.891228" x="-103.74164"/>
  </text>
  <g id="g3131" transform="translate(-275.56 -42.562)">
    <path id="path3097" d="m1043.7 716.07c-20.158 0.00013-37.175 6.8646-51.041 20.603-13.867 13.738-20.807 30.626-20.807 50.655-0.0001 20.158 6.9405 37.175 20.807 51.041 13.866 13.867 30.883 20.807 51.041 20.807 19.644-0.00001 36.455-7.0432 50.451-21.102 13.995-14.059 20.989-30.973 20.989-50.746-0.0003-19.644-6.9674-36.429-20.898-50.36s-30.769-20.898-50.542-20.898zm0 41.41c8.3454 0.0001 15.419 2.9262 21.262 8.7681 5.8417 5.842 8.7678 12.863 8.7681 21.08-0.0003 8.3457-2.9531 15.496-8.859 21.466-5.9064 5.9704-12.954 8.9726-21.171 8.9725-8.4744 0.00003-15.62-2.9261-21.398-8.7681-5.778-5.8419-8.6547-13.068-8.6545-21.67-0.0002-8.474 2.8765-15.571 8.6545-21.284 5.7775-5.7135 12.923-8.5636 21.398-8.5637z"/>
    <path id="path3087" d="m903.2 568.73c-20.03 0.00028-36.97 6.9675-50.837 20.898-13.867 13.931-20.807 30.898-20.807 50.928-0.00001 20.158 6.9138 37.121 20.716 50.86 13.802 13.738 30.77 20.603 50.928 20.603 19.773 0.00013 36.633-6.9671 50.564-20.898s20.898-30.791 20.898-50.564c-0.0001-19.773-6.9673-36.686-20.898-50.746-13.931-14.059-30.791-21.08-50.564-21.08zm0 41.978c8.3456 0.00024 15.442 2.9264 21.284 8.7681 5.8419 5.8422 8.768 12.863 8.7681 21.08-0.00014 8.3459-2.9262 15.442-8.7681 21.284-5.8421 5.8422-12.939 8.7683-21.284 8.7681-8.4741 0.00017-15.571-2.8993-21.284-8.6772-5.7136-5.7776-8.5637-12.901-8.5637-21.375-0.00006-8.4738 2.85-15.57 8.5637-21.284 5.7135-5.7133 12.81-8.5634 21.284-8.5637z"/>
    <path id="path4056" style="color:#000000" fill="#fff" d="m610.59 65.067-55.75 8.5312-76.969 59.938-22.281 12.781-30.781 30.688-19.656 140.56-19.656 44.906-87.438 50.062v310.88l191.06-129.09 44.906-4.0625 95.719-12.312 97.719-37.188 30.344-8.875 16.469-24.781 38.938-20.719 34.375-45.438-7.25-49.125-22.25-13.094 12.438-46.469-20.438-40.969-14.344-5 9.875-49.781-17.344-41.531-41.344-12.75 12.969-43.344-27.5-47.938-58.469-5.0938-29.312 18.469-34.031-39.25z"/>
    <path id="path3867" style="color:#000000" fill="#f00" d="m610.59 65.062-55.75 8.5312-76.969 59.938-22.281 12.75-30.75 30.719-19.688 140.56-19.625 44.906-87.469 50.062v9.4062l9.4062-4.6875 95.656-63.219 14.469-24.719 8.6562 68.031 53.625 25.844 45.031 15.281 24.75 2.4375 16.531 47.406-39.594-7.1562-18.125 29.594-37.531-0.78125-1.125-21.906-11.156 17.75-29.125-64.312-84.75 94.688-46.719 45.438v30.312l11.781-11.344 47.375-33.375-27.22 29.03-10.19 15.75-21.75 12.406v99.031l191.09-129.16 44.875-4.0625 95.688-12.25 22.312-8.5 4.75-33.469 5.75 0.8125c32.706 4.6207 57.269 2.9382 73.656-5.0938 16.387-8.0314 27.547-23.771 33.531-47.188l37.125 5.25 6.41-3.4 34.34-45.41-7.21-49.16-22.29-13.09 12.44-46.47-20.41-40.94-14.406-5 9.9062-49.812-17.344-41.531-41.375-12.719 13-43.375-27.469-47.938-58.5-5.0938-29.281 18.469-34.062-39.25zm196.25 424.72-32.562 17.281-16.469 24.812-30.344 8.875-75.438 28.719-2.7188 19.281 89.75 12.688-10.656 75.344 33.438-7.0625l25.16 12.98 17.938-13.5 24.875-176.16-22.969-3.25zm-198.37-419.03l1.9688 22.062-21 23.219 28.75-12.062 28.344 46.531-30.031 3.3125-32.094-1.9062-14.562-24.281-25.375-10.062 12.594 14.344-12.344 25.281-24.812-9.375-7.9688 16.688 16.188 22.875-31.281 8.9688 25.094 11.531-19.156-1.25 9.8438 58.688 23.562-2.875-40.844 29.406 30.938 8.9375-68.875 25.938-33.438-14.594 8.5312-134.47 23.438-27.875 30.281-17.312 75.562-58.156 46.688-3.5625zm69.969 21.094 53.188 5-11.969 12.75-11 9.6875-16.281 8.7812-14.25 5.0312-26.906-20 27.219-21.25zm62.219 107.94 28.656 1.9375-5.625 27.344-45.5 6.9375-20 22.281-41.312 33.406-20.438-0.5625 3.125-32.406 32.219-25.469 53.969-9.7812 14.906-23.688zm44.312 92.875 21.531 3.1562-3.2812 19.688-36-2.6562-53.844 49.125 41.281 6.4688-64.125 15.781-17.438-19.156 2.0312-26.812 109.84-45.594zm27.688 94.719 18.438 5.4375-24.781 6.8438-15.344 11.469-22.719 29.438-36.75-0.4375-14.125-16.406 3.5938-17.344 91.688-19zm-199.06 26.219 0.78125 45.281 30.719 10.281 12.75-34.375 17.125 57.562-13.188 8.2188-40.156 0.46875-18.906-15.656-12.25 23.406-12.062-50.875 35.188-44.312z"/>
    <path id="path3949" style="color:#000000" d="m744.91 112.38 2.5 20.312l-13.82 26.81-55.21-26.34 26.68 26.9-33.59 26.63-62.97-0.22-48.44-40.47-3.6562 7.4375-8.625-5.1562 5.6562 16.75-32.531 4.8125 16.281 21.5-26.8 1.66 6.9688 12.25 40-5.7812 24.719 32.688 26.719 13.656-42.25 7.4688 13.531 27.125-33.969 24.562 38.375 35.219-37.875 28.656-15.438 5.875 37.84 9.87-10.16 20.53-15.9 23.76 66.94-65.88 27.688-12.812-6.2188 21.094 1.4375 23.469 4.9688-11.969 11.969-3.25 0.25-0.8125 24.375 66.312 8.2812-16.812 15.125 17.812 14.062-36.375 70.906-12.781 39.625-12.5 9.125-41.938-12.406-30.312 4.375 30.531-32.656 24.75 9.3125 4.5938-39.219 19.188-49.688 8.4062-41.375-8.375-11.031-41.5 1.5-5.0312 19.844-10.062 111.03-46.938 4.7812-15.344 6.5938-36.375-14.75-33.938-2.4062 64.031-33.375 16.219-3.375 1.4375-85.312 36.188-26.75-1.5312-21.906-52.469 42.656-38.594 32.562-5.5312 25.906-4.4062 13.469-20.688 8-9.5625 15.656-31.75 3.0625-22.188-11.062-20.812zm92.406 293.38-2.125 24.969-12.875 21.5-75 22.844l-37.32-12.57-11.625-16.531-15.406 18.219 9 11.906 31.844 29.656 1.6875 6.8438-33.062 22.688-15.35-1.28-8.375 3.625c29.628 3.567 52.133 1.6102 67.469-5.9062 16.387-8.0314 27.547-23.771 33.531-47.188l38.219 5.4062 6.4688-4.9062 18.906-21.312 9.7188-31.938-5.72-26.03zm-29.375 84.188-18 13.625-8.5938 4.1562-20.75 20.406-29 7.9688-56.75 32.656-23.75 7.5-1.7812 12.5 89.75 12.688-10.656 75.344 33.438-7.0625l25.15 12.94 17.938-13.5 24.875-176.16-21.875-3.0938zm-156.85 86.3 4.66-33.03l-34.406 14.844-5.5312-31.5-31.844 33.625-9.7812-20.625-13 12.188-82.75 16.375-69.625 43.281-95.31 63.84-15.438 6.1562v36.5l3.6562-2.1562 78.438-48.5 111.22-69.938 65.906-12.219 75.156-2.9375 18.656-5.9062zm4.66-33.03 12.97-5.6c-2.0322-0.24466-4.0882-0.51591-6.1875-0.8125l-5.75-0.8125-1.0312 7.2188z"/>
    <path id="path3119" d="m749.18 675.29-32.125 6.5312v18.531l17.562 6.5c8.5068-7.924 19.415-18.062 26-23.938l-11.438-7.625z"/>
    <path id="path3117" d="m802.99 681.29-21.688 11.562-0.40625-0.25-23.875 22.031 19.625 7.25 26.344-12.375v-28.219z"/>
    <path id="path3115" d="m718.98 704.41v14.938l6.5938 0.1875s3.6722-3.4307 8.4375-7.875l-15.031-7.25z"/>
    <path id="path3085" d="m798.34 712.16-21.68 17.84-27.72-13.38l-9.4375 8.7188-15.875-2.2812v136.84h74.719v-147.75z"/>
    <path id="path3095" d="m876.79 859.16 164.47-283.69h31.007l-164.47 283.69z"/>
  </g>
  <metadata>
    <rdf:RDF>
      <cc:Work>
        <dc:format>image/svg+xml</dc:format>
        <dc:type rdf:resource="http://purl.org/dc/dcmitype/StillImage"/>
        <cc:license rdf:resource="http://creativecommons.org/licenses/publicdomain/"/>
        <dc:publisher>
          <cc:Agent rdf:about="http://openclipart.org/">
            <dc:title>Openclipart</dc:title>
          </cc:Agent>
        </dc:publisher>
        <dc:title>99% power</dc:title>
        <dc:date>2012-04-30T21:35:24</dc:date>
        <dc:description>Something for the Occupy folks. Eat the rich :)</dc:description>
        <dc:source>http://openclipart.org/detail/169774/99-power-by-scyg</dc:source>
        <dc:creator>
          <cc:Agent>
            <dc:title>scyg</dc:title>
          </cc:Agent>
        </dc:creator>
        <dc:subject>
          <rdf:Bag>
            <rdf:li>99 percent</rdf:li>
            <rdf:li>99%</rdf:li>
            <rdf:li>clip art</rdf:li>
            <rdf:li>clipart</rdf:li>
            <rdf:li>may 1</rdf:li>
            <rdf:li>may day</rdf:li>
            <rdf:li>occupy</rdf:li>
            <rdf:li>revolution</rdf:li>
          </rdf:Bag>
        </dc:subject>
      </cc:Work>
      <cc:License rdf:about="http://creativecommons.org/licenses/publicdomain/">
        <cc:permits rdf:resource="http://creativecommons.org/ns#Reproduction"/>
        <cc:permits rdf:resource="http://creativecommons.org/ns#Distribution"/>
        <cc:permits rdf:resource="http://creativecommons.org/ns#DerivativeWorks"/>
      </cc:License>
    </rdf:RDF>
  </metadata>
</svg>
