<?xml version="1.0" encoding="UTF-8" standalone="no"?>
<!-- Created with Inkscape (http://www.inkscape.org/) -->

<svg
   xmlns:dc="http://purl.org/dc/elements/1.1/"
   xmlns:cc="http://creativecommons.org/ns#"
   xmlns:rdf="http://www.w3.org/1999/02/22-rdf-syntax-ns#"
   xmlns:svg="http://www.w3.org/2000/svg"
   xmlns="http://www.w3.org/2000/svg"
   xmlns:sodipodi="http://sodipodi.sourceforge.net/DTD/sodipodi-0.dtd"
   xmlns:inkscape="http://www.inkscape.org/namespaces/inkscape"
   width="370.14209"
   height="452.81308"
   id="svg2"
   version="1.1"
   inkscape:version="0.48.4 r9939"
   sodipodi:docname="insectour.svg"
   inkscape:export-filename="C:\Users\ADMIN_ATCARES\Pictures\monsters\insectour.png"
   inkscape:export-xdpi="90"
   inkscape:export-ydpi="90">
  <defs
     id="defs4" />
  <sodipodi:namedview
     id="base"
     pagecolor="#ffffff"
     bordercolor="#666666"
     borderopacity="1.0"
     inkscape:pageopacity="1"
     inkscape:pageshadow="2"
     inkscape:zoom="1"
     inkscape:cx="438.26562"
     inkscape:cy="243.71541"
     inkscape:document-units="px"
     inkscape:current-layer="layer1"
     showgrid="false"
     inkscape:window-width="1378"
     inkscape:window-height="878"
     inkscape:window-x="54"
     inkscape:window-y="-8"
     inkscape:window-maximized="1"
     showguides="true"
     inkscape:guide-bbox="true"
     fit-margin-top="20"
     fit-margin-left="20"
     fit-margin-right="20"
     fit-margin-bottom="20" />
  <metadata
     id="metadata7">
    <rdf:RDF>
      <cc:Work
         rdf:about="">
        <dc:format>image/svg+xml</dc:format>
        <dc:type
           rdf:resource="http://purl.org/dc/dcmitype/StillImage" />
        <dc:title />
      </cc:Work>
    </rdf:RDF>
  </metadata>
  <g
     inkscape:label="Layer 1"
     inkscape:groupmode="layer"
     id="layer1"
     transform="translate(63.265616,-473.52311)">
    <g
       id="g3039">
      <path
         inkscape:connector-curvature="0"
         id="path3213"
         d="m 87.765941,632.80179 c -6.196846,-3.5363 -12.767166,-8.68764 -20.329611,-7.17515 -15.143706,3.02875 -21.998068,20.99196 -26.906827,34.08199 -24.005559,64.01481 -11.714289,127.24966 17.937889,186.55402 2.85192,5.70383 39.139463,53.53962 44.246788,48.43229 2.62107,-2.62107 -4.45285,-49.09347 0,-57.99917 1.96581,-3.93161 4.27685,-8.12464 6.57723,-11.95859"
         style="fill:#ff607d;fill-opacity:1;stroke:none" />
      <path
         inkscape:connector-curvature="0"
         id="path3816"
         d="m 101.39461,782.50996 c -6.396144,0.0234 -22.552444,4.51412 -22.9739,5.56774 -0.523418,1.30854 1.260547,3.60566 0,4.23594 0.311488,16.94302 -1.305021,34.10217 2.534162,50.73864 3.543825,15.35657 8.181087,30.25882 11.579436,45.59635 4.886081,4.76566 8.746572,7.47573 10.173622,6.04868 2.62107,-2.62107 -4.452845,-49.10246 0,-58.00817 1.96582,-3.93162 4.28474,-8.11543 6.58511,-11.94938 l -4.55038,-40.54652 c -0.31174,-0.45386 -0.62502,-0.847 -0.96187,-1.18385 -0.35252,-0.35252 -1.2017,-0.50376 -2.38618,-0.49943 z m -22.9739,9.80368 -2.256692,-0.33296 c 0.492468,0.53126 1.078323,0.92215 2.256692,0.33296 z m -2.256692,-0.33296 c -0.781101,-0.84264 -1.330646,-2.07251 -3.662501,-0.51793 l 3.662501,0.51793 z"
         style="fill:#ff867b;fill-opacity:1;stroke:none" />
      <path
         inkscape:connector-curvature="0"
         id="path3219"
         d="m 143.37339,645.35831 c 0.43749,-16.50091 19.57618,-20.85379 33.48406,-18.53581 16.36675,2.72779 20.24971,26.70587 21.52546,39.46334 6.17164,61.71637 -6.93052,117.35178 -37.07163,171.60579 -4.18194,7.52749 -30.07517,57.01293 -35.27785,54.4116 -15.93697,-7.9685 -15.71372,-49.53289 -20.92753,-65.17433"
         style="fill:#ff607d;fill-opacity:1;stroke:none" />
      <path
         inkscape:connector-curvature="0"
         id="path3811"
         d="m 170.03884,626.24307 c -4.78301,-0.0318 -9.71554,0.69983 -14.02111,2.38617 19.27728,46.70224 15.02412,125.58121 12.87427,153.52927 -1.4988,19.48443 -8.37376,37.60227 -11.83841,56.65784 -0.53305,2.9318 -0.95564,6.11691 -1.36881,9.41524 2.59434,-4.75961 4.69732,-8.67346 5.62324,-10.34011 30.14111,-54.254 43.24063,-109.88497 37.06899,-171.60133 -1.27574,-12.75747 -5.14584,-36.74587 -21.51259,-39.47366 -2.1731,-0.36219 -4.48835,-0.55786 -6.82558,-0.57342 z"
         style="fill:#ff867b;fill-opacity:1;stroke:none" />
      <path
         sodipodi:nodetypes="csssssc"
         inkscape:connector-curvature="0"
         id="path3143"
         d="m 172.67194,774.51109 c 32.69647,22.27699 18.33142,77.56458 13.15445,111.2149 -0.43462,2.82501 -6.28846,18.22666 -4.18551,20.32961 2.47282,2.47282 65.68789,-12.10166 71.75154,-16.1441 5.61452,-3.74301 -15.84341,-6.52463 -17.93788,-6.57722 -21.00555,-0.52749 -45.74438,21.91298 -32.97111,-14.94824 15.44379,-44.56786 1.66459,-111.31999 -36.38872,-104.03975"
         style="fill:#00a0a2;fill-opacity:1;stroke:none" />
      <path
         inkscape:connector-curvature="0"
         id="path3139"
         d="m 71.023919,644.76039 c -22.675816,22.54651 -29.30316,55.66736 -31.690268,86.69978 -2.473184,32.1514 9.550871,62.24724 27.504759,87.89564 5.593474,7.99069 10.611563,19.62654 20.927531,22.72133 51.707239,15.51218 90.301129,-44.32938 97.462519,-87.29772 5.57383,-33.44299 6.62972,-72.87741 -14.94824,-101.64802 -19.92841,-26.57123 -48.3498,-26.91862 -77.730841,-22.72132 -6.242035,0.89172 -14.054691,2.34467 -19.133745,6.57722 -13.835788,11.52982 -22.025176,33.18941 -27.504759,49.62816"
         style="fill:#3e8b8b;fill-opacity:1;stroke:none" />
      <path
         sodipodi:nodetypes="cssssssc"
         inkscape:connector-curvature="0"
         id="path3205"
         d="m 171.47608,661.79258 c 17.65649,13.04004 39.60117,2.43783 55.60744,-9.56687 17.75111,-13.31333 35.29583,-26.45366 48.4323,-44.84472 3.79882,-5.31835 6.3828,-12.50149 8.96894,-18.53582 0.91896,-2.14424 2.39172,-8.91008 2.39172,-6.57722 0,28.96183 -20.07537,73.45 -49.03022,84.30807 -14.44382,5.41642 -26.29244,3.74284 -40.16387,6.51712 -9.3617,1.87235 -21.75019,-1.00045 -30.39182,-5.32126"
         style="fill:#00a0a2;fill-opacity:1;stroke:none" />
      <path
         sodipodi:nodetypes="csssssc"
         style="fill:#00a0a2;fill-opacity:1;stroke:none"
         d="m 168.09519,711.39236 c 32.05172,5.57889 74.53189,10.88113 93.81688,-19.79239 1.29405,-2.05824 12.16061,-24.96042 14.80611,-24.09461 4.49465,1.47099 1.14186,17.65677 0.29956,20.23043 -6.90713,21.10487 -22.33238,31.30846 -42.72374,36.3485 -25.35509,6.26692 -50.70826,-13.0184 -65.67137,-10.79738 -1.97413,0.29303 -2.12358,2.64396 -2.6244,4.17419"
         id="path3995"
         inkscape:connector-curvature="0" />
      <path
         inkscape:connector-curvature="0"
         id="path3783"
         d="m 147.98982,634.60393 c -5.40262,1.80112 -11.07219,3.05112 -17.14719,3.8105 -0.64838,0.0811 -4.72325,0.23061 -7.91693,0.24046 2.77742,0.82991 6.02505,2.16694 6.21516,2.29368 11.48411,7.65608 16.08301,15.01333 19.88482,28.31969 4.8824,17.0884 3.0417,36.48779 4.21743,54.12368 1.03158,15.47368 3.64023,33.12226 1.70177,48.62994 -2.4774,19.81923 -5.84288,47.27729 -20.7172,62.1516 -1.43572,1.43572 -2.87704,2.81333 -4.30992,4.18044 29.71513,-14.85791 50.2755,-53.37954 55.30753,-83.57171 5.57383,-33.443 6.63198,-72.87316 -14.94598,-101.64378 -6.59045,-8.78726 -14.11382,-14.69916 -22.28949,-18.5345 z m -25.06412,4.05096 c -2.09475,-0.62593 -3.92147,-0.96969 -3.92147,-0.24046 0,0.19281 1.76426,0.24712 3.92147,0.24046 z"
         style="fill:#00a0a2;fill-opacity:1;stroke:none" />
      <path
         sodipodi:nodetypes="cccc"
         inkscape:connector-curvature="0"
         id="path4011"
         d="M 107.16319,829.51509 C 162.15354,825.48908 187.69518,724.18862 166.3552,671.38788 148.33256,628.13354 96.26454,643.34184 75.875989,673.92468 34.950603,720.0569 69.608713,831.7682 107.16319,829.51509 z"
         style="fill:#50a7bb;fill-opacity:1;stroke:none" />
      <path
         sodipodi:nodetypes="cccsscssc"
         inkscape:connector-curvature="0"
         id="path3141"
         d="m 59.065323,762.55251 c -37.950884,8.48075 -46.602739,70.62723 -31.092336,101.64803 5.400314,9.21133 14.829196,20.40755 13.154448,23.91718 -0.0723,0.0723 -42.6866406,-0.96222 -52.019871,8.37101 -4.95209,4.95209 10.54560042,6.93966 11.9586004,7.17515 2.85141,0.47524 53.7675546,-7.72698 55.6074446,-9.56687 0.149163,-0.14917 -19.160426,-36.1907 -20.329604,-41.25714 -7.832456,-33.94059 0.582502,-54.9941 22.123387,-76.53498 1.353899,-1.3539 -1.702677,-10.87661 2.989646,-16.74203"
         style="fill:#3e8b8b;fill-opacity:1;stroke:none" />
      <path
         sodipodi:nodetypes="cccccc"
         inkscape:connector-curvature="0"
         id="path4013"
         d="m 165.11851,668.65784 c -32.56893,14.16515 -63.5904,18.67946 -90.138335,6.28915 -9.841032,11.63458 -15.079502,27.19443 -16.851218,43.96856 43.571833,29.37781 100.803273,9.47369 115.701873,-5.34578 -0.17661,-15.4376 -2.58324,-30.07578 -7.47299,-42.1743 -0.39247,-0.94192 -0.81526,-1.85072 -1.23933,-2.73763 z"
         style="fill:#bde5a5;fill-opacity:1;stroke:none" />
      <path
         sodipodi:nodetypes="ccccc"
         inkscape:connector-curvature="0"
         id="path4017"
         d="m 169.50241,753.74634 c -36.46959,22.27533 -75.184564,27.88258 -110.485576,0.31446 1.86784,12.9698 5.302662,25.58138 9.82217,36.66205 32.614446,21.92928 59.839266,17.10392 88.362576,-1.97924 5.36098,-10.6152 9.48798,-22.58065 12.30083,-34.99727 z"
         style="fill:#bde5a5;fill-opacity:1;stroke:none" />
      <path
         inkscape:connector-curvature="0"
         id="path3151"
         d="m 112.87899,625.62664 c -34.011872,0.94562 -56.997591,5.11585 -43.648865,-38.26749 2.31792,-7.53324 7.727836,-18.50291 14.350308,-23.31925 17.748957,-12.90833 44.760557,-19.27017 66.370177,-14.94825 45.81523,9.16305 47.09332,70.45988 5.38137,86.10186 -16.29137,6.10927 -31.75721,-11.62615 -45.44265,-4.78343"
         style="fill:#3e8b8b;fill-opacity:1;stroke:none" />
      <path
         inkscape:connector-curvature="0"
         id="path3003"
         d="m 144.27182,548.2206 c 17.97727,12.74329 14.02175,33.93779 11.65343,52.88436 -1.02298,8.18384 -2.04035,20.05264 -8.65683,26.00749 -2.96493,2.66843 -6.54873,5.22957 -10.34011,7.28802 5.97818,1.95659 12.12702,3.14964 18.40502,0.79539 41.71195,-15.64198 40.43245,-76.94283 -5.38278,-86.10587 -1.85379,-0.37077 -3.75468,-0.65327 -5.67873,-0.86939 z"
         style="fill:#00a0a2;fill-opacity:1;stroke:none" />
      <path
         sodipodi:nodetypes="ccc"
         inkscape:connector-curvature="0"
         id="path3167"
         d="m 69.973137,580.84202 c -14.413739,38.43666 50.226093,9.97063 50.226093,-20.92753 -15.49006,-25.18582 -43.79062,3.96888 -50.226093,20.92753 z"
         style="fill:#a6dc84;fill-opacity:1;stroke:none" />
      <path
         sodipodi:nodetypes="ccc"
         inkscape:connector-curvature="0"
         id="path3169"
         d="m 162.7548,552.53415 c -23.26159,-2.45778 -5.49629,24.90677 0,33.48406 27.56625,44.10599 32.23557,-27.03694 0,-33.48406 z"
         style="fill:#a6dc84;fill-opacity:1;stroke:none" />
      <path
         sodipodi:nodetypes="cccc"
         inkscape:connector-curvature="0"
         id="path3788"
         d="m 134.63462,645.03652 c 40.29156,45.98752 32.27812,93.33492 15.72288,155.4715 23.34693,-34.92449 30.50722,-93.21871 16.00034,-129.11255 -6.85445,-16.45069 -18.63536,-24.45072 -31.72322,-26.35895 z"
         style="opacity:0.42307691;fill:#ddf1d1;fill-opacity:1;stroke:none" />
      <path
         inkscape:connector-curvature="0"
         id="path3195"
         d="m 135.72779,598.19442 c 4.25498,25.07377 17.48539,58.75872 8.96895,84.30807 -1.79894,5.39682 -43.86707,15.73603 -29.89648,22.72132 5.57686,2.78843 11.78518,2.39172 17.93789,2.39172 5.97929,0 11.95859,0 17.93788,0 6.31004,0 33.17933,-0.90265 21.52546,-12.55652 -3.14016,-3.14016 -11.5212,-0.16054 -13.75237,-2.39172 -1.96849,-1.96849 1.79378,-20.22235 1.79378,-23.91718 0,-26.50277 3.32936,-61.24703 -15.54616,-80.12256"
         style="fill:#3e8b8b;fill-opacity:1;stroke:none" />
      <path
         inkscape:connector-curvature="0"
         id="path3207"
         d="m 72.219771,653.1314 c -3.985051,-4.70545 -9.564008,-8.23751 -15.546162,-9.56687 -17.511233,-3.89139 -32.246997,-2.95531 -46.638515,-14.94825 -5.9370596,-4.94755 -34.58412,-49.62814 -38.86542,-49.62814 -6.99461,0 20.8912404,43.11968 22.1234004,44.84471 20.2009696,28.28136 34.8603226,29.89648 66.9681116,29.89648 6.916491,-0.67184 25.413136,-6.28393 23.319247,4.18551"
         style="fill:#3e8b8b;fill-opacity:1;stroke:none" />
      <path
         sodipodi:nodetypes="csssssc"
         inkscape:connector-curvature="0"
         id="path3209"
         d="m 52.94095,715.02591 c -32.197093,-4.6673 -74.264506,-8.55851 -83.052116,-43.70896 -0.58966,-2.35864 -3.79364,-27.50475 -6.57723,-27.50475 -4.72924,0 -6.57722,16.42576 -6.57722,19.13375 0,22.20638 11.48636,36.70174 29.29855,47.83436 22.1481004,13.84256 52.242215,3.39978 65.772252,10.1648 1.785059,0.89253 1.195863,3.17333 1.195863,4.78343"
         style="fill:#3e8b8b;fill-opacity:1;stroke:none" />
      <path
         inkscape:connector-curvature="0"
         id="path3991"
         d="m 117.70372,561.57627 c -2.29747,-8.54684 3.71536,-36.33825 -7.69148,-39.18997 -7.66018,-1.91503 -17.877526,-0.91069 -24.905797,-5.12766 -3.982854,-2.38971 -19.250239,-17.9468 -21.975679,-17.9468 -0.375219,0 -3.204296,9.05321 -5.127656,10.25532 -3.05774,1.91108 -15.749246,8.37491 -15.749246,12.08662 0,2.0442 18.679333,-11.18287 18.679333,-10.62158 0,2.12787 -2.277455,5.00105 -2.930087,6.95897 -2.253977,6.76193 14.770215,-1.46505 15.749237,-1.46505 1.641293,0 -7.39582,6.88838 -5.493919,8.79027 3.27255,3.27256 12.527276,-7.98336 14.650456,-5.86018 1.515597,1.51561 -5.560595,8.20754 -1.465051,10.25532 5.714918,2.85746 16.982912,-7.25779 24.173259,-3.66262 9.64901,4.82451 12.08663,28.82411 12.08663,38.0912"
         style="fill:#3e8b8b;fill-opacity:1;stroke:none" />
      <path
         inkscape:connector-curvature="0"
         id="path3993"
         d="m 142.55414,555.55205 c 0.37239,-6.58326 9.85229,-36.10907 15.55176,-39.52752 2.81365,-1.68759 6.47653,-1.01756 9.59413,-2.13044 10.15291,-3.62422 21.98627,-6.90285 31.62585,-11.72074 3.36895,-1.68381 6.23697,-3.24785 8.70644,-6.128 0.99327,-1.15843 1.29675,-3.31701 1.68816,-2.22052 2.02089,5.66133 7.04164,11.43171 11.63448,15.36969 0.67054,0.57493 5.60148,3.28428 4.26326,4.08691 -4.74861,2.84816 -12.54029,-4.26982 -16.43298,-5.24364 -0.86392,-0.21613 4.33197,8.09853 1.59758,8.70573 -2.45299,0.5447 -8.58079,-2.72573 -9.50428,-4.26542 -0.0835,-0.1392 -2.01938,2.23828 -3.90891,2.04251 -2.63443,-0.27295 -6.474,-3.26044 -9.14921,-2.66639 -1.51004,0.3353 -0.22157,4.93282 -2.57702,5.77363 -5.18297,1.85013 -16.02395,-1.86501 -19.72064,0.35221 -12.69967,7.61706 -15.16187,26.21258 -23.36862,37.57199 z"
         style="fill:#00a0a2;fill-opacity:1;stroke:none" />
      <path
         sodipodi:nodetypes="cccsssscsssc"
         inkscape:connector-curvature="0"
         id="path3776"
         d="m 147.0837,591.32041 c -0.3733,-0.95324 -2.63553,-3.43084 -1.29332,-6.07907 -3.86476,1.99004 -6.07092,4.09064 -3.98401,6.47746 7.81519,13.56275 12.44882,27.13644 12.44882,42.9512 l 0,50.83113 c 0,1.34307 -1.71078,7.24202 -0.88788,8.06492 1.96578,1.96576 5.22617,-0.0172 6.88107,3.29255 1.35618,2.71235 -3.40759,7.34625 -6.6221,10.69155 9.09157,-0.30222 28.87364,-2.18366 18.57149,-12.48581 -3.14016,-3.14016 -11.51247,-0.1735 -13.74364,-2.40467 -1.96849,-1.96849 1.79425,-20.22244 1.79425,-23.91727 0,-26.50277 5.71085,-58.54647 -13.16468,-77.42199 z"
         style="fill:#00a0a2;fill-opacity:1;stroke:none" />
      <path
         transform="matrix(0.59192006,0,0,0.59192006,-63.382756,456.91239)"
         d="m 386.38335,411.92548 a 30.557114,8.586297 0 1 1 -61.11423,0 30.557114,8.586297 0 1 1 61.11423,0 z"
         sodipodi:ry="8.586297"
         sodipodi:rx="30.557114"
         sodipodi:cy="411.92548"
         sodipodi:cx="355.82623"
         id="path3781"
         style="fill:#4d4d4d;fill-opacity:1;stroke:none"
         sodipodi:type="arc" />
      <path
         inkscape:connector-curvature="0"
         id="path3797"
         d="m 161.19704,552.40103 c 14.83209,8.61455 19.68379,29.6799 14.761,46.90967 -0.014,0.049 -0.12571,0.49228 -0.14798,0.57343 14.95985,5.71893 13.09925,-42.12191 -13.05923,-47.35361 -0.54538,-0.0577 -1.05284,-0.104 -1.55379,-0.12949 z"
         style="fill:#bde5a5;fill-opacity:1;stroke:none" />
      <path
         inkscape:connector-curvature="0"
         id="path3801"
         d="m 104.85364,550.07035 c -3.32631,0.0196 -6.727001,1.04605 -10.062637,2.73763 19.303637,2.62501 17.804947,24.36937 3.144575,39.02973 -0.02202,0.022 -0.310397,0.3105 -0.351452,0.35145 11.795874,-7.41253 22.622444,-19.63982 22.622444,-32.27814 -4.35658,-7.0835 -9.74113,-9.87374 -15.35293,-9.84067 z"
         style="fill:#bde5a5;fill-opacity:1;stroke:none" />
      <path
         inkscape:connector-curvature="0"
         id="path3823"
         d="m 254.31346,888.57464 c -2.52234,0.21861 -5.02008,0.46529 -7.49149,0.7399 -11.42903,1.26989 -22.18497,3.48751 -32.88856,7.76895 -8.93817,3.57527 -18.81509,5.02097 -27.50578,8.97128 -0.0533,0.0242 -0.11305,0.0497 -0.16648,0.074 15.10339,-1.63382 61.94806,-12.7694 67.12743,-16.22231 0.69219,-0.46146 0.96864,-0.9029 0.92488,-1.33182 z"
         style="fill:#3e8b8b;fill-opacity:1;stroke:none" />
    </g>
  </g>
</svg>
