<?xml version="1.0"?>
<svg xmlns:rdf="http://www.w3.org/1999/02/22-rdf-syntax-ns#" xmlns="http://www.w3.org/2000/svg" xmlns:cc="http://creativecommons.org/ns#" xmlns:dc="http://purl.org/dc/elements/1.1/" xmlns:svg="http://www.w3.org/2000/svg" id="svg2" viewBox="0 0 520.18 725.6" version="1.1">
  <g id="layer1" transform="translate(-52.734 58.135)">
    <g id="g3700">
      <rect id="rect2816" height="557.13" width="409.17" stroke="#000" y="104.18" x="58.884" stroke-width="12.3" fill="none"/>
      <g id="g3616" stroke="#000" stroke-width="5.3" fill="none">
        <path id="path3592" d="m96.63 166.08h332.17"/>
        <path id="path3594" d="m96.63 205.34h332.17"/>
        <path id="path3596" d="m96.63 240.07h332.17"/>
        <path id="path3598" d="m96.63 279.32h332.17"/>
        <path id="path3600" d="m96.63 318.58h332.17"/>
        <path id="path3602" d="m96.63 353.3h332.17"/>
        <path id="path3604" d="m96.63 388.03h332.17"/>
        <path id="path3606" d="m96.63 427.29h332.17"/>
        <path id="path3608" d="m96.63 462.01h332.17"/>
        <path id="path3610" d="m96.63 501.27h332.17"/>
        <path id="path3612" d="m96.63 540.52h332.17"/>
        <path id="path3614" d="m96.63 575.25h332.17"/>
      </g>
      <g id="g3640">
        <g id="g3676" transform="matrix(1.5698 1.0578 -1.0578 1.5698 1123.9 -178.31)">
          <path id="path3630" stroke="#000" stroke-width="1px" d="m-215.97 222.69 0.97 54.97c-2.3642 8.9992-4.9396 18.445-7.6875 28.062-12.079 42.276-9.0625 264.25-9.0625 264.25l22.656 84.531 0.34375-19.656 0.34375 19.656 22.625-84.531s1.8676-139.58-3.375-218.44l5.7188 8.5625 2.25 88.344 10.562-18.125-3.75-80.031-16.25-17.312c-1.1476-11.826-2.5312-21.344-4.2188-27.25-2.7573-9.6506-5.3168-19.13-7.6875-28.156l0.96875-54.875s-2.7525 12.428-7.1875 30.406c-4.4356-17.981-7.2188-30.406-7.2188-30.406z"/>
          <path id="path3635" d="m-223.5 600.16 14.375 53.594 0.34375-19.656 0.34375 19.656 14.344-53.594h-29.406z" stroke="#000" stroke-width="1px" fill="#f9f9f9"/>
          <rect id="rect3647" height="6.7943" width="41.521" y="434.08" x="-229.12" fill="#f9f9f9"/>
          <rect id="rect3649" height="4.5295" width="41.521" y="565.44" x="-229.12" fill="#f9f9f9"/>
        </g>
      </g>
    </g>
  </g>
  <metadata>
    <rdf:RDF>
      <cc:Work>
        <dc:format>image/svg+xml</dc:format>
        <dc:type rdf:resource="http://purl.org/dc/dcmitype/StillImage"/>
        <cc:license rdf:resource="http://creativecommons.org/licenses/publicdomain/"/>
        <dc:publisher>
          <cc:Agent rdf:about="http://openclipart.org/">
            <dc:title>Openclipart</dc:title>
          </cc:Agent>
        </dc:publisher>
        <dc:title>Paper,Write,Pen</dc:title>
        <dc:date>2010-08-11T03:31:20</dc:date>
        <dc:description>Paper,Write,Pen,bujung</dc:description>
        <dc:source>http://openclipart.org/detail/79363/paperwritepen-by-aungkarns</dc:source>
        <dc:creator>
          <cc:Agent>
            <dc:title>aungkarns</dc:title>
          </cc:Agent>
        </dc:creator>
        <dc:subject>
          <rdf:Bag>
            <rdf:li>black and white</rdf:li>
            <rdf:li>bujung</rdf:li>
            <rdf:li>clip art</rdf:li>
            <rdf:li>clipart</rdf:li>
            <rdf:li>fountain pen</rdf:li>
            <rdf:li>page</rdf:li>
            <rdf:li>paper</rdf:li>
            <rdf:li>pen</rdf:li>
            <rdf:li>writing</rdf:li>
          </rdf:Bag>
        </dc:subject>
      </cc:Work>
      <cc:License rdf:about="http://creativecommons.org/licenses/publicdomain/">
        <cc:permits rdf:resource="http://creativecommons.org/ns#Reproduction"/>
        <cc:permits rdf:resource="http://creativecommons.org/ns#Distribution"/>
        <cc:permits rdf:resource="http://creativecommons.org/ns#DerivativeWorks"/>
      </cc:License>
    </rdf:RDF>
  </metadata>
</svg>
